<svg xmlns="http://www.w3.org/2000/svg" xmlns:xlink="http://www.w3.org/1999/xlink" width="500" zoomAndPan="magnify" viewBox="0 0 375 374.999991" height="500" preserveAspectRatio="xMidYMid meet" version="1.0"><defs><g/><clipPath id="2fd2029690"><path d="M 209 115 L 232.804688 115 L 232.804688 178 L 209 178 Z M 209 115 " clip-rule="nonzero"/></clipPath><clipPath id="173d3833a2"><path d="M 142.054688 90.757812 L 206 90.757812 L 206 130 L 142.054688 130 Z M 142.054688 90.757812 " clip-rule="nonzero"/></clipPath><clipPath id="16e65ca2ec"><path d="M 174 175 L 213 175 L 213 221.257812 L 174 221.257812 Z M 174 175 " clip-rule="nonzero"/></clipPath></defs><path fill="#f9a825" d="M 193.371094 116.984375 C 191.632812 116.984375 189.90625 117.125 188.195312 117.414062 C 186.480469 117.699219 184.800781 118.125 183.15625 118.691406 C 181.515625 119.257812 179.929688 119.953125 178.402344 120.785156 C 176.875 121.613281 175.425781 122.5625 174.058594 123.632812 C 172.691406 124.703125 171.421875 125.878906 170.246094 127.160156 C 169.074219 128.441406 168.015625 129.8125 167.074219 131.269531 C 166.128906 132.726562 165.3125 134.253906 164.621094 135.847656 C 163.929688 137.441406 163.378906 139.078125 162.960938 140.765625 C 162.546875 142.449219 162.269531 144.15625 162.140625 145.890625 C 162.007812 147.621094 162.019531 149.351562 162.175781 151.078125 C 162.332031 152.808594 162.632812 154.511719 163.070312 156.191406 C 163.511719 157.871094 164.089844 159.5 164.800781 161.085938 C 165.515625 162.667969 166.351562 164.183594 167.316406 165.625 C 168.28125 167.070312 169.359375 168.425781 170.550781 169.6875 C 171.742188 170.953125 173.027344 172.109375 174.414062 173.160156 C 175.796875 174.210938 177.257812 175.140625 178.796875 175.949219 L 178.796875 177.375 L 207.949219 176.632812 L 207.949219 175.949219 C 209.488281 175.140625 210.949219 174.210938 212.332031 173.160156 C 213.714844 172.109375 215.003906 170.953125 216.191406 169.6875 C 217.382812 168.425781 218.460938 167.070312 219.425781 165.625 C 220.390625 164.183594 221.230469 162.667969 221.941406 161.085938 C 222.65625 159.5 223.230469 157.871094 223.671875 156.191406 C 224.113281 154.511719 224.410156 152.808594 224.566406 151.078125 C 224.726562 149.351562 224.738281 147.621094 224.605469 145.890625 C 224.472656 144.15625 224.199219 142.449219 223.78125 140.765625 C 223.367188 139.078125 222.8125 137.441406 222.121094 135.847656 C 221.433594 134.253906 220.617188 132.726562 219.671875 131.269531 C 218.726562 129.8125 217.667969 128.441406 216.496094 127.160156 C 215.324219 125.878906 214.054688 124.703125 212.683594 123.632812 C 211.316406 122.5625 209.867188 121.613281 208.34375 120.785156 C 206.816406 119.953125 205.230469 119.257812 203.585938 118.691406 C 201.945312 118.125 200.265625 117.699219 198.550781 117.414062 C 196.835938 117.125 195.109375 116.984375 193.371094 116.984375 Z M 193.371094 116.984375 " fill-opacity="1" fill-rule="nonzero"/><path fill="#c97700" d="M 167.195312 131.09375 C 166.597656 132 166.046875 132.9375 165.542969 133.90625 C 165.042969 134.871094 164.59375 135.859375 164.195312 136.875 C 163.796875 137.886719 163.453125 138.917969 163.164062 139.96875 C 162.875 141.015625 162.640625 142.078125 162.460938 143.152344 C 162.28125 144.222656 162.160156 145.304688 162.09375 146.390625 C 162.027344 147.476562 162.019531 148.5625 162.066406 149.652344 C 162.113281 150.738281 162.21875 151.820312 162.378906 152.894531 C 162.542969 153.972656 162.757812 155.039062 163.03125 156.089844 C 163.304688 157.144531 163.628906 158.179688 164.011719 159.199219 C 164.390625 160.222656 164.824219 161.21875 165.308594 162.191406 C 165.796875 163.167969 166.332031 164.113281 166.914062 165.03125 C 167.5 165.949219 168.128906 166.835938 168.808594 167.6875 C 169.484375 168.542969 170.203125 169.355469 170.964844 170.132812 C 171.726562 170.910156 172.527344 171.648438 173.367188 172.339844 C 174.207031 173.035156 175.082031 173.683594 175.988281 174.285156 C 176.894531 174.890625 177.832031 175.445312 178.796875 175.949219 L 206.980469 176.644531 L 207.9375 175.949219 C 210.339844 174.683594 212.539062 173.132812 214.539062 171.300781 C 213.144531 171.238281 211.753906 171.121094 210.371094 170.945312 C 208.988281 170.773438 207.613281 170.539062 206.25 170.25 C 204.882812 169.964844 203.53125 169.621094 202.195312 169.21875 C 200.859375 168.820312 199.542969 168.363281 198.246094 167.855469 C 196.945312 167.347656 195.671875 166.785156 194.417969 166.171875 C 193.167969 165.554688 191.941406 164.890625 190.746094 164.175781 C 189.546875 163.460938 188.382812 162.695312 187.25 161.886719 C 186.117188 161.074219 185.019531 160.214844 183.957031 159.3125 C 182.890625 158.410156 181.867188 157.464844 180.882812 156.480469 C 179.898438 155.492188 178.957031 154.464844 178.058594 153.402344 C 177.160156 152.335938 176.304688 151.234375 175.496094 150.101562 C 174.6875 148.964844 173.929688 147.796875 173.21875 146.601562 C 172.507812 145.402344 171.84375 144.175781 171.234375 142.921875 C 170.625 141.671875 170.066406 140.394531 169.5625 139.09375 C 169.058594 137.796875 168.609375 136.480469 168.214844 135.144531 C 167.820312 133.804688 167.480469 132.457031 167.195312 131.09375 Z M 167.195312 131.09375 " fill-opacity="0.5569" fill-rule="nonzero"/><path fill="#f9a825" d="M 209.136719 160.691406 C 205.3125 167.535156 199.660156 171.867188 193.34375 171.867188 C 187.027344 171.867188 181.402344 167.523438 177.582031 160.691406 C 177.582031 160.691406 185.710938 169.414062 193.402344 169.0625 C 201.09375 168.710938 209.136719 160.691406 209.136719 160.691406 Z M 209.136719 160.691406 " fill-opacity="1" fill-rule="nonzero"/><path fill="#0a4191" d="M 193.355469 169.523438 C 191.816406 169.523438 190.300781 169.363281 188.800781 169.035156 C 187.300781 168.707031 185.851562 168.226562 184.453125 167.589844 C 183.058594 166.949219 181.746094 166.171875 180.515625 165.25 C 179.289062 164.328125 178.171875 163.289062 177.167969 162.128906 C 176.976562 161.90625 176.835938 161.65625 176.746094 161.378906 C 176.65625 161.101562 176.621094 160.820312 176.640625 160.527344 C 176.664062 160.238281 176.742188 159.960938 176.871094 159.703125 C 177.003906 159.441406 177.179688 159.214844 177.402344 159.023438 C 177.625 158.835938 177.871094 158.695312 178.148438 158.601562 C 178.425781 158.511719 178.710938 158.476562 179.003906 158.5 C 179.292969 158.519531 179.570312 158.597656 179.832031 158.726562 C 180.09375 158.859375 180.316406 159.035156 180.507812 159.253906 C 180.90625 159.714844 181.328125 160.152344 181.773438 160.566406 C 182.21875 160.980469 182.683594 161.371094 183.171875 161.734375 C 183.65625 162.097656 184.160156 162.4375 184.683594 162.746094 C 185.207031 163.058594 185.746094 163.339844 186.300781 163.589844 C 186.851562 163.84375 187.417969 164.066406 187.996094 164.257812 C 188.570312 164.449219 189.15625 164.609375 189.753906 164.742188 C 190.347656 164.871094 190.945312 164.964844 191.550781 165.03125 C 192.15625 165.097656 192.761719 165.128906 193.371094 165.128906 C 193.980469 165.128906 194.585938 165.097656 195.191406 165.03125 C 195.796875 164.964844 196.394531 164.871094 196.988281 164.742188 C 197.582031 164.609375 198.167969 164.449219 198.746094 164.257812 C 199.324219 164.066406 199.886719 163.84375 200.441406 163.589844 C 200.996094 163.339844 201.53125 163.058594 202.054688 162.746094 C 202.578125 162.4375 203.082031 162.097656 203.570312 161.734375 C 204.058594 161.371094 204.523438 160.980469 204.96875 160.566406 C 205.414062 160.152344 205.835938 159.714844 206.230469 159.253906 C 206.421875 159.035156 206.648438 158.859375 206.910156 158.726562 C 207.171875 158.597656 207.445312 158.519531 207.738281 158.5 C 208.027344 158.476562 208.3125 158.511719 208.589844 158.601562 C 208.867188 158.695312 209.117188 158.835938 209.339844 159.023438 C 209.558594 159.214844 209.738281 159.441406 209.867188 159.703125 C 210 159.960938 210.078125 160.238281 210.097656 160.527344 C 210.121094 160.820312 210.085938 161.101562 209.996094 161.378906 C 209.902344 161.65625 209.761719 161.90625 209.574219 162.128906 C 208.566406 163.289062 207.449219 164.332031 206.21875 165.253906 C 204.984375 166.175781 203.671875 166.957031 202.269531 167.59375 C 200.871094 168.230469 199.421875 168.714844 197.917969 169.039062 C 196.414062 169.367188 194.890625 169.527344 193.355469 169.523438 Z M 193.355469 169.523438 " fill-opacity="1" fill-rule="nonzero"/><g clip-path="url(#2fd2029690)"><path fill="#f9a825" d="M 209.699219 115.191406 C 210.398438 115.535156 211.085938 115.90625 211.757812 116.292969 C 212.433594 116.683594 213.09375 117.09375 213.742188 117.527344 C 214.390625 117.960938 215.027344 118.410156 215.644531 118.882812 C 216.265625 119.355469 216.871094 119.847656 217.457031 120.359375 C 218.046875 120.867188 218.617188 121.398438 219.171875 121.945312 C 219.726562 122.492188 220.261719 123.054688 220.78125 123.636719 C 221.300781 124.21875 221.800781 124.816406 222.28125 125.429688 C 222.761719 126.039062 223.21875 126.667969 223.660156 127.3125 C 224.101562 127.953125 224.519531 128.609375 224.917969 129.277344 C 225.316406 129.945312 225.695312 130.628906 226.050781 131.320312 C 226.40625 132.011719 226.738281 132.714844 227.046875 133.429688 C 227.359375 134.144531 227.644531 134.867188 227.910156 135.601562 C 228.175781 136.332031 228.414062 137.074219 228.632812 137.820312 C 228.847656 138.566406 229.042969 139.320312 229.210938 140.082031 C 229.378906 140.839844 229.523438 141.605469 229.644531 142.375 C 229.765625 143.144531 229.859375 143.917969 229.929688 144.691406 C 230 145.46875 230.046875 146.242188 230.070312 147.023438 C 230.089844 147.800781 230.085938 148.578125 230.058594 149.355469 C 230.03125 150.132812 229.976562 150.910156 229.898438 151.683594 C 229.820312 152.460938 229.71875 153.230469 229.59375 154 C 229.464844 154.765625 229.3125 155.53125 229.136719 156.289062 C 228.960938 157.046875 228.761719 157.800781 228.539062 158.542969 C 228.316406 159.289062 228.070312 160.027344 227.796875 160.757812 C 227.527344 161.488281 227.234375 162.207031 226.917969 162.921875 C 226.601562 163.632812 226.261719 164.332031 225.898438 165.023438 C 225.539062 165.710938 225.15625 166.390625 224.75 167.054688 C 224.347656 167.71875 223.921875 168.371094 223.476562 169.007812 C 223.027344 169.648438 222.5625 170.269531 222.078125 170.878906 C 221.589844 171.488281 221.085938 172.082031 220.5625 172.65625 C 220.039062 173.234375 219.496094 173.792969 218.9375 174.335938 C 218.378906 174.878906 217.800781 175.402344 217.210938 175.90625 C 216.617188 176.414062 216.007812 176.898438 215.382812 177.363281 C 216.8125 176.558594 218.175781 175.652344 219.476562 174.648438 C 220.773438 173.648438 221.996094 172.558594 223.136719 171.378906 C 224.277344 170.199219 225.332031 168.949219 226.292969 167.617188 C 227.253906 166.289062 228.117188 164.898438 228.878906 163.445312 C 229.640625 161.996094 230.292969 160.496094 230.839844 158.949219 C 231.386719 157.402344 231.816406 155.824219 232.136719 154.21875 C 232.457031 152.609375 232.660156 150.988281 232.746094 149.347656 C 232.832031 147.710938 232.796875 146.078125 232.648438 144.445312 C 232.5 142.8125 232.234375 141.199219 231.851562 139.601562 C 231.472656 138.007812 230.980469 136.449219 230.371094 134.925781 C 229.765625 133.402344 229.054688 131.929688 228.238281 130.507812 C 227.421875 129.085938 226.507812 127.726562 225.492188 126.4375 C 224.480469 125.148438 223.382812 123.933594 222.195312 122.800781 C 221.007812 121.667969 219.746094 120.628906 218.410156 119.675781 C 217.074219 118.722656 215.675781 117.871094 214.214844 117.121094 C 212.757812 116.371094 211.25 115.726562 209.699219 115.191406 Z M 209.699219 115.191406 " fill-opacity="1" fill-rule="nonzero"/></g><path fill="#0a4191" d="M 150.628906 129.003906 C 150.046875 129.003906 149.578125 127.949219 149.578125 126.652344 L 149.578125 118.875 C 149.578125 117.574219 150.046875 116.523438 150.628906 116.523438 C 151.207031 116.523438 151.679688 117.574219 151.679688 118.875 L 151.679688 126.644531 C 151.679688 127.945312 151.207031 129.003906 150.628906 129.003906 Z M 150.628906 129.003906 " fill-opacity="1" fill-rule="nonzero"/><path fill="#0a4191" d="M 153.210938 128.179688 C 153.210938 128.523438 153.148438 128.851562 153.015625 129.167969 C 152.882812 129.484375 152.699219 129.761719 152.457031 130.003906 C 152.214844 130.246094 151.933594 130.433594 151.617188 130.566406 C 151.300781 130.695312 150.972656 130.761719 150.628906 130.761719 C 150.285156 130.761719 149.957031 130.695312 149.640625 130.566406 C 149.324219 130.433594 149.042969 130.246094 148.800781 130.003906 C 148.558594 129.761719 148.371094 129.484375 148.242188 129.167969 C 148.109375 128.851562 148.042969 128.523438 148.042969 128.179688 C 148.042969 127.839844 148.109375 127.507812 148.242188 127.191406 C 148.371094 126.875 148.558594 126.597656 148.800781 126.355469 C 149.042969 126.113281 149.324219 125.925781 149.640625 125.796875 C 149.957031 125.664062 150.285156 125.597656 150.628906 125.597656 C 150.972656 125.597656 151.300781 125.664062 151.617188 125.796875 C 151.933594 125.925781 152.214844 126.113281 152.457031 126.355469 C 152.699219 126.597656 152.882812 126.875 153.015625 127.191406 C 153.148438 127.507812 153.210938 127.839844 153.210938 128.179688 Z M 153.210938 128.179688 " fill-opacity="1" fill-rule="nonzero"/><path fill="#0a4191" d="M 152.269531 128.425781 L 150.628906 128.179688 L 148.988281 128.425781 L 148.042969 138.59375 L 150.628906 136.640625 L 153.210938 138.59375 Z M 152.269531 128.425781 " fill-opacity="1" fill-rule="nonzero"/><g clip-path="url(#173d3833a2)"><path fill="#0a4191" d="M 176.523438 110.589844 C 176.523438 110.589844 184.476562 103.0625 197.292969 102.078125 L 205.90625 90.789062 L 168.390625 92.09375 L 142.054688 118.816406 L 151.679688 119.699219 L 151.679688 116.96875 L 152.9375 119.796875 L 157.921875 120.269531 L 161.761719 129.003906 C 162.726562 127.421875 163.804688 125.917969 164.996094 124.492188 C 166.191406 123.070312 167.484375 121.746094 168.875 120.515625 C 170.269531 119.289062 171.746094 118.171875 173.308594 117.167969 C 174.867188 116.160156 176.496094 115.277344 178.191406 114.515625 C 179.886719 113.757812 181.628906 113.128906 183.417969 112.628906 C 185.207031 112.132812 187.027344 111.769531 188.871094 111.546875 C 190.714844 111.324219 192.566406 111.238281 194.421875 111.292969 C 196.277344 111.347656 198.121094 111.539062 199.949219 111.871094 L 197.03125 105.234375 C 185.933594 104.800781 176.523438 110.589844 176.523438 110.589844 Z M 176.523438 110.589844 " fill-opacity="1" fill-rule="nonzero"/></g><g clip-path="url(#16e65ca2ec)"><path fill="#0a4191" d="M 202.722656 221.226562 L 191.15625 221.226562 C 190.617188 221.226562 190.082031 221.175781 189.554688 221.070312 C 189.027344 220.964844 188.515625 220.808594 188.019531 220.605469 C 187.519531 220.398438 187.046875 220.144531 186.601562 219.847656 C 186.152344 219.546875 185.738281 219.207031 185.359375 218.828125 C 184.976562 218.449219 184.636719 218.035156 184.339844 217.585938 C 184.039062 217.140625 183.785156 216.667969 183.582031 216.171875 C 183.375 215.675781 183.21875 215.164062 183.113281 214.636719 C 183.007812 214.109375 182.957031 213.574219 182.957031 213.039062 C 182.957031 212.5 183.007812 211.96875 183.113281 211.441406 C 183.21875 210.914062 183.375 210.402344 183.582031 209.90625 C 183.785156 209.40625 184.039062 208.9375 184.339844 208.488281 C 184.636719 208.042969 184.976562 207.628906 185.359375 207.246094 C 185.738281 206.867188 186.152344 206.527344 186.601562 206.230469 C 187.046875 205.929688 187.519531 205.679688 188.019531 205.472656 C 188.515625 205.265625 189.027344 205.113281 189.554688 205.007812 C 190.082031 204.902344 190.617188 204.847656 191.15625 204.847656 L 203.675781 204.847656 C 203.898438 204.847656 204.109375 204.808594 204.316406 204.722656 C 204.519531 204.636719 204.699219 204.515625 204.855469 204.359375 C 205.011719 204.203125 205.132812 204.023438 205.21875 203.820312 C 205.304688 203.613281 205.34375 203.402344 205.34375 203.179688 C 205.34375 202.960938 205.304688 202.746094 205.21875 202.542969 C 205.132812 202.339844 205.011719 202.15625 204.855469 202 C 204.699219 201.84375 204.519531 201.726562 204.316406 201.640625 C 204.109375 201.554688 203.898438 201.511719 203.675781 201.511719 L 182.820312 201.511719 C 182.292969 201.503906 181.773438 201.441406 181.257812 201.332031 C 180.746094 201.21875 180.246094 201.058594 179.761719 200.851562 C 179.277344 200.644531 178.820312 200.390625 178.386719 200.09375 C 177.953125 199.796875 177.550781 199.460938 177.183594 199.085938 C 176.8125 198.710938 176.484375 198.300781 176.195312 197.863281 C 175.90625 197.421875 175.660156 196.960938 175.460938 196.472656 C 175.261719 195.988281 175.113281 195.484375 175.011719 194.96875 C 174.910156 194.453125 174.859375 193.933594 174.859375 193.40625 C 174.859375 192.882812 174.910156 192.359375 175.011719 191.84375 C 175.113281 191.328125 175.261719 190.828125 175.460938 190.339844 C 175.660156 189.855469 175.90625 189.390625 176.195312 188.953125 C 176.484375 188.511719 176.8125 188.105469 177.183594 187.730469 C 177.550781 187.355469 177.953125 187.019531 178.386719 186.722656 C 178.820312 186.425781 179.277344 186.171875 179.761719 185.964844 C 180.246094 185.753906 180.746094 185.59375 181.257812 185.484375 C 181.773438 185.375 182.292969 185.3125 182.820312 185.300781 L 203.710938 185.300781 C 203.953125 185.300781 204.1875 185.257812 204.410156 185.164062 C 204.632812 185.070312 204.828125 184.941406 205 184.769531 C 205.171875 184.597656 205.300781 184.402344 205.394531 184.179688 C 205.488281 183.957031 205.535156 183.722656 205.535156 183.484375 C 205.535156 183.242188 205.488281 183.007812 205.394531 182.785156 C 205.300781 182.5625 205.171875 182.367188 205 182.195312 C 204.828125 182.023438 204.632812 181.894531 204.410156 181.800781 C 204.1875 181.707031 203.953125 181.664062 203.710938 181.664062 L 190.765625 181.664062 C 190.335938 181.664062 189.921875 181.582031 189.527344 181.417969 C 189.128906 181.253906 188.78125 181.019531 188.476562 180.714844 C 188.171875 180.410156 187.9375 180.0625 187.773438 179.664062 C 187.609375 179.269531 187.527344 178.855469 187.527344 178.425781 C 187.527344 177.996094 187.609375 177.585938 187.773438 177.1875 C 187.9375 176.792969 188.171875 176.441406 188.476562 176.136719 C 188.78125 175.835938 189.128906 175.601562 189.527344 175.4375 C 189.921875 175.273438 190.335938 175.191406 190.765625 175.191406 L 203.710938 175.191406 C 204.257812 175.191406 204.796875 175.242188 205.332031 175.351562 C 205.863281 175.457031 206.382812 175.613281 206.886719 175.820312 C 207.390625 176.03125 207.867188 176.285156 208.320312 176.585938 C 208.773438 176.890625 209.191406 177.234375 209.578125 177.617188 C 209.964844 178.003906 210.308594 178.421875 210.609375 178.875 C 210.914062 179.324219 211.167969 179.804688 211.375 180.304688 C 211.585938 180.808594 211.742188 181.328125 211.847656 181.859375 C 211.953125 182.394531 212.007812 182.933594 212.007812 183.476562 C 212.007812 184.019531 211.953125 184.558594 211.847656 185.09375 C 211.742188 185.625 211.585938 186.144531 211.375 186.648438 C 211.167969 187.148438 210.914062 187.628906 210.609375 188.078125 C 210.308594 188.53125 209.964844 188.949219 209.578125 189.335938 C 209.191406 189.71875 208.773438 190.0625 208.320312 190.367188 C 207.867188 190.667969 207.390625 190.921875 206.886719 191.132812 C 206.382812 191.339844 205.863281 191.496094 205.332031 191.601562 C 204.796875 191.710938 204.257812 191.761719 203.710938 191.761719 L 182.820312 191.761719 C 182.601562 191.761719 182.394531 191.804688 182.191406 191.886719 C 181.992188 191.96875 181.816406 192.085938 181.664062 192.242188 C 181.507812 192.394531 181.390625 192.570312 181.308594 192.769531 C 181.222656 192.972656 181.183594 193.179688 181.183594 193.398438 C 181.183594 193.613281 181.222656 193.824219 181.308594 194.023438 C 181.390625 194.222656 181.507812 194.398438 181.664062 194.554688 C 181.816406 194.707031 181.992188 194.824219 182.191406 194.90625 C 182.394531 194.992188 182.601562 195.03125 182.820312 195.03125 L 203.675781 195.03125 C 204.210938 195.03125 204.742188 195.082031 205.265625 195.1875 C 205.789062 195.289062 206.300781 195.445312 206.792969 195.648438 C 207.289062 195.851562 207.757812 196.101562 208.203125 196.398438 C 208.648438 196.695312 209.0625 197.035156 209.4375 197.410156 C 209.816406 197.789062 210.15625 198.199219 210.453125 198.644531 C 210.75 199.089844 211.003906 199.558594 211.207031 200.050781 C 211.410156 200.546875 211.566406 201.054688 211.671875 201.578125 C 211.773438 202.101562 211.828125 202.632812 211.828125 203.167969 C 211.828125 203.699219 211.773438 204.230469 211.671875 204.753906 C 211.566406 205.277344 211.410156 205.785156 211.207031 206.28125 C 211.003906 206.773438 210.75 207.242188 210.453125 207.6875 C 210.15625 208.132812 209.816406 208.542969 209.4375 208.921875 C 209.0625 209.296875 208.648438 209.636719 208.203125 209.933594 C 207.757812 210.230469 207.289062 210.480469 206.792969 210.683594 C 206.300781 210.886719 205.789062 211.042969 205.265625 211.144531 C 204.742188 211.25 204.210938 211.300781 203.675781 211.300781 L 191.15625 211.300781 C 190.925781 211.300781 190.707031 211.34375 190.496094 211.429688 C 190.285156 211.515625 190.101562 211.640625 189.9375 211.800781 C 189.777344 211.960938 189.652344 212.148438 189.566406 212.355469 C 189.480469 212.566406 189.433594 212.785156 189.433594 213.015625 C 189.433594 213.242188 189.480469 213.460938 189.566406 213.671875 C 189.652344 213.882812 189.777344 214.066406 189.9375 214.226562 C 190.101562 214.386719 190.285156 214.511719 190.496094 214.597656 C 190.707031 214.683594 190.925781 214.726562 191.15625 214.726562 L 202.722656 214.726562 C 203.144531 214.742188 203.546875 214.832031 203.929688 215 C 204.316406 215.171875 204.65625 215.40625 204.949219 215.710938 C 205.242188 216.011719 205.46875 216.355469 205.625 216.746094 C 205.785156 217.136719 205.863281 217.542969 205.863281 217.960938 C 205.863281 218.382812 205.785156 218.789062 205.625 219.175781 C 205.46875 219.566406 205.242188 219.914062 204.949219 220.214844 C 204.65625 220.515625 204.316406 220.753906 203.929688 220.921875 C 203.546875 221.09375 203.144531 221.183594 202.722656 221.195312 Z M 202.722656 221.226562 " fill-opacity="1" fill-rule="nonzero"/></g><path fill="#0a4191" d="M 193.371094 114.121094 C 192.261719 114.121094 191.152344 114.171875 190.050781 114.28125 C 188.945312 114.390625 187.847656 114.550781 186.757812 114.765625 C 185.667969 114.984375 184.59375 115.25 183.53125 115.574219 C 182.46875 115.894531 181.425781 116.265625 180.398438 116.691406 C 179.371094 117.113281 178.371094 117.585938 177.390625 118.109375 C 176.410156 118.632812 175.460938 119.199219 174.535156 119.816406 C 173.613281 120.433594 172.722656 121.089844 171.863281 121.792969 C 171.003906 122.496094 170.183594 123.242188 169.398438 124.023438 C 168.613281 124.808594 167.867188 125.628906 167.160156 126.484375 C 166.457031 127.34375 165.796875 128.230469 165.179688 129.152344 C 164.5625 130.074219 163.992188 131.023438 163.46875 132.003906 C 162.945312 132.980469 162.46875 133.980469 162.042969 135.003906 C 161.617188 136.03125 161.246094 137.074219 160.921875 138.132812 C 160.597656 139.195312 160.328125 140.269531 160.113281 141.355469 C 159.894531 142.445312 159.734375 143.539062 159.625 144.644531 C 159.515625 145.746094 159.460938 146.851562 159.457031 147.960938 C 159.457031 149.070312 159.511719 150.175781 159.621094 151.28125 C 159.730469 152.382812 159.890625 153.480469 160.109375 154.566406 C 160.324219 155.652344 160.59375 156.730469 160.914062 157.789062 C 161.238281 158.851562 161.609375 159.894531 162.035156 160.917969 C 162.460938 161.941406 162.933594 162.945312 163.457031 163.921875 C 163.980469 164.902344 164.550781 165.851562 165.164062 166.773438 C 165.78125 167.695312 166.441406 168.585938 167.148438 169.441406 C 167.851562 170.300781 168.59375 171.121094 169.378906 171.90625 C 170.164062 172.6875 170.984375 173.433594 171.84375 174.136719 C 172.703125 174.839844 173.59375 175.5 174.515625 176.117188 C 175.4375 176.734375 176.390625 177.300781 177.367188 177.824219 C 178.347656 178.347656 179.351562 178.820312 180.375 179.246094 C 181.402344 179.671875 182.445312 180.042969 183.507812 180.367188 C 184.570312 180.6875 185.644531 180.957031 186.734375 181.175781 C 187.824219 181.390625 188.921875 181.554688 190.023438 181.664062 C 191.128906 181.773438 192.238281 181.828125 193.347656 181.828125 C 194.457031 181.828125 195.566406 181.773438 196.671875 181.664062 C 197.773438 181.554688 198.871094 181.394531 199.960938 181.175781 C 201.050781 180.960938 202.125 180.691406 203.1875 180.371094 C 204.25 180.046875 205.292969 179.675781 206.320312 179.25 C 207.347656 178.828125 208.347656 178.355469 209.328125 177.832031 C 210.308594 177.308594 211.257812 176.738281 212.183594 176.125 C 213.105469 175.507812 213.996094 174.847656 214.855469 174.144531 C 215.710938 173.441406 216.535156 172.699219 217.320312 171.914062 C 218.105469 171.128906 218.847656 170.308594 219.554688 169.453125 C 220.257812 168.59375 220.917969 167.703125 221.535156 166.78125 C 222.152344 165.859375 222.722656 164.910156 223.246094 163.933594 C 223.769531 162.957031 224.242188 161.953125 224.667969 160.929688 C 225.09375 159.90625 225.464844 158.863281 225.789062 157.800781 C 226.109375 156.742188 226.378906 155.667969 226.597656 154.578125 C 226.8125 153.492188 226.976562 152.394531 227.085938 151.292969 C 227.195312 150.1875 227.25 149.082031 227.25 147.972656 C 227.25 146.863281 227.195312 145.757812 227.085938 144.65625 C 226.976562 143.554688 226.8125 142.457031 226.597656 141.371094 C 226.382812 140.285156 226.113281 139.210938 225.789062 138.148438 C 225.46875 137.089844 225.09375 136.046875 224.671875 135.023438 C 224.246094 134 223.773438 132.996094 223.25 132.019531 C 222.726562 131.042969 222.15625 130.09375 221.539062 129.171875 C 220.925781 128.25 220.265625 127.359375 219.558594 126.503906 C 218.855469 125.644531 218.113281 124.824219 217.328125 124.042969 C 216.542969 123.257812 215.722656 122.515625 214.863281 121.8125 C 214.007812 121.109375 213.117188 120.449219 212.195312 119.832031 C 211.273438 119.214844 210.320312 118.644531 209.34375 118.125 C 208.363281 117.601562 207.363281 117.125 206.335938 116.703125 C 205.3125 116.277344 204.269531 115.902344 203.207031 115.582031 C 202.144531 115.261719 201.070312 114.992188 199.980469 114.773438 C 198.894531 114.558594 197.796875 114.394531 196.691406 114.285156 C 195.589844 114.175781 194.480469 114.121094 193.371094 114.121094 Z M 193.371094 175.246094 C 192.476562 175.246094 191.585938 175.203125 190.695312 175.113281 C 189.804688 175.027344 188.921875 174.894531 188.046875 174.722656 C 187.167969 174.546875 186.300781 174.332031 185.445312 174.070312 C 184.589844 173.8125 183.75 173.511719 182.921875 173.167969 C 182.097656 172.828125 181.289062 172.445312 180.5 172.023438 C 179.710938 171.605469 178.945312 171.144531 178.203125 170.648438 C 177.457031 170.152344 176.742188 169.621094 176.050781 169.054688 C 175.359375 168.488281 174.695312 167.890625 174.0625 167.257812 C 173.433594 166.625 172.832031 165.964844 172.265625 165.273438 C 171.699219 164.582031 171.164062 163.867188 170.667969 163.125 C 170.171875 162.382812 169.710938 161.617188 169.289062 160.828125 C 168.871094 160.042969 168.488281 159.234375 168.144531 158.410156 C 167.804688 157.585938 167.5 156.746094 167.242188 155.890625 C 166.984375 155.035156 166.765625 154.167969 166.589844 153.292969 C 166.417969 152.417969 166.285156 151.535156 166.199219 150.644531 C 166.109375 149.757812 166.066406 148.867188 166.066406 147.972656 C 166.066406 147.082031 166.109375 146.1875 166.199219 145.300781 C 166.285156 144.410156 166.417969 143.527344 166.589844 142.652344 C 166.765625 141.777344 166.984375 140.910156 167.242188 140.058594 C 167.5 139.203125 167.804688 138.363281 168.144531 137.535156 C 168.488281 136.710938 168.871094 135.90625 169.289062 135.117188 C 169.710938 134.328125 170.171875 133.566406 170.667969 132.820312 C 171.164062 132.078125 171.699219 131.363281 172.265625 130.671875 C 172.832031 129.980469 173.433594 129.320312 174.0625 128.6875 C 174.695312 128.058594 175.359375 127.457031 176.050781 126.890625 C 176.742188 126.324219 177.457031 125.792969 178.203125 125.296875 C 178.945312 124.800781 179.710938 124.34375 180.5 123.921875 C 181.289062 123.5 182.097656 123.121094 182.921875 122.777344 C 183.75 122.4375 184.589844 122.136719 185.445312 121.875 C 186.300781 121.617188 187.167969 121.398438 188.046875 121.226562 C 188.921875 121.050781 189.804688 120.921875 190.695312 120.832031 C 191.585938 120.746094 192.476562 120.703125 193.371094 120.703125 C 194.265625 120.703125 195.160156 120.746094 196.046875 120.832031 C 196.9375 120.921875 197.820312 121.050781 198.699219 121.226562 C 199.574219 121.398438 200.441406 121.617188 201.296875 121.875 C 202.152344 122.136719 202.996094 122.4375 203.820312 122.777344 C 204.648438 123.121094 205.453125 123.5 206.242188 123.921875 C 207.03125 124.34375 207.796875 124.800781 208.542969 125.296875 C 209.285156 125.792969 210.003906 126.324219 210.695312 126.890625 C 211.386719 127.457031 212.046875 128.058594 212.679688 128.6875 C 213.3125 129.320312 213.914062 129.980469 214.480469 130.671875 C 215.046875 131.363281 215.578125 132.078125 216.074219 132.820312 C 216.574219 133.566406 217.03125 134.328125 217.453125 135.117188 C 217.875 135.90625 218.257812 136.710938 218.597656 137.535156 C 218.941406 138.363281 219.242188 139.203125 219.5 140.058594 C 219.761719 140.910156 219.976562 141.777344 220.152344 142.652344 C 220.328125 143.527344 220.457031 144.410156 220.546875 145.300781 C 220.632812 146.1875 220.675781 147.082031 220.675781 147.972656 C 220.675781 148.867188 220.632812 149.757812 220.546875 150.644531 C 220.457031 151.535156 220.328125 152.417969 220.152344 153.292969 C 219.976562 154.167969 219.761719 155.035156 219.5 155.890625 C 219.242188 156.746094 218.941406 157.585938 218.597656 158.410156 C 218.257812 159.234375 217.875 160.042969 217.453125 160.828125 C 217.03125 161.617188 216.574219 162.382812 216.074219 163.125 C 215.578125 163.867188 215.046875 164.582031 214.480469 165.273438 C 213.914062 165.964844 213.3125 166.625 212.679688 167.257812 C 212.046875 167.890625 211.386719 168.488281 210.695312 169.054688 C 210.003906 169.621094 209.285156 170.152344 208.542969 170.648438 C 207.796875 171.144531 207.03125 171.605469 206.242188 172.023438 C 205.453125 172.445312 204.648438 172.828125 203.820312 173.167969 C 202.996094 173.511719 202.152344 173.8125 201.296875 174.070312 C 200.441406 174.332031 199.578125 174.546875 198.699219 174.722656 C 197.820312 174.894531 196.9375 175.027344 196.046875 175.113281 C 195.160156 175.203125 194.265625 175.246094 193.371094 175.246094 Z M 193.371094 175.246094 " fill-opacity="1" fill-rule="nonzero"/><g fill="#0a4191" fill-opacity="1"><g transform="translate(110.892583, 259.919909)"><g><path d="M 17.726562 -8.417969 C 17.726562 -12.65625 14.960938 -16.835938 9.492188 -16.835938 C 4.023438 -16.835938 0.738281 -12.933594 0.738281 -8.140625 C 0.738281 -2.367188 4.484375 0.429688 9.183594 0.429688 C 13.394531 0.429688 16.464844 -1.660156 17.417969 -5.375 L 11.980469 -5.375 C 11.765625 -4.117188 10.8125 -3.316406 9.246094 -3.316406 C 7.679688 -3.316406 6.480469 -4.085938 6.207031 -6.820312 L 17.632812 -6.820312 C 17.695312 -7.371094 17.726562 -7.925781 17.726562 -8.417969 Z M 9.214844 -13.085938 C 10.691406 -13.085938 11.644531 -12.132812 11.949219 -10.199219 L 6.390625 -10.199219 C 6.757812 -12.226562 7.773438 -13.085938 9.214844 -13.085938 Z M 9.214844 -13.085938 "/></g></g></g><g fill="#0a4191" fill-opacity="1"><g transform="translate(130.550455, 259.919909)"><g><path d="M 14.378906 -5.5 L 16.160156 0 L 22.179688 0 L 14.53125 -21.195312 L 7.773438 -21.195312 L 0.121094 0 L 5.992188 0 L 7.773438 -5.5 Z M 11.089844 -16.3125 L 13.054688 -9.800781 L 9.125 -9.800781 Z M 11.089844 -16.3125 "/></g></g></g><g fill="#0a4191" fill-opacity="1"><g transform="translate(153.464101, 259.919909)"><g><path d="M 19.722656 -16.894531 L 19.722656 -21.195312 L 0.429688 -21.195312 L 0.429688 -16.894531 L 7.3125 -16.894531 L 7.3125 0 L 12.839844 0 L 12.839844 -16.894531 Z M 19.722656 -16.894531 "/></g></g></g><g fill="#0a4191" fill-opacity="1"><g transform="translate(174.074134, 259.919909)"><g><path d="M 19.722656 -16.894531 L 19.722656 -21.195312 L 0.429688 -21.195312 L 0.429688 -16.894531 L 7.3125 -16.894531 L 7.3125 0 L 12.839844 0 L 12.839844 -16.894531 Z M 19.722656 -16.894531 "/></g></g></g><g fill="#0a4191" fill-opacity="1"><g transform="translate(194.684164, 259.919909)"><g><path d="M 18.707031 -4.300781 L 7.988281 -4.300781 L 7.988281 -8.480469 L 17.785156 -8.480469 L 17.785156 -12.78125 L 7.988281 -12.78125 L 7.988281 -16.894531 L 18.402344 -16.894531 L 18.402344 -21.195312 L 2.457031 -21.195312 L 2.457031 0 L 18.707031 0 Z M 18.707031 -4.300781 "/></g></g></g><g fill="#0a4191" fill-opacity="1"><g transform="translate(215.5092, 259.919909)"><g><path d="M 22.734375 0 L 22.734375 -21.195312 L 17.203125 -21.195312 L 17.203125 -12.132812 C 17.203125 -10.90625 17.234375 -8.722656 17.386719 -6.574219 L 9.339844 -21.195312 L 2.457031 -21.195312 L 2.457031 0 L 7.988281 0 L 7.988281 -8.753906 C 7.988281 -9.984375 7.988281 -11.859375 7.804688 -14.007812 L 15.511719 0 Z M 22.734375 0 "/></g></g></g><g fill="#0a4191" fill-opacity="1"><g transform="translate(241.09504, 259.919909)"><g><path d="M 13.179688 -21.074219 C 12.105469 -21.195312 11.613281 -21.195312 10.476562 -21.195312 L 2.457031 -21.195312 L 2.457031 0 L 10.476562 0 C 11.613281 0 12.105469 0 13.179688 -0.121094 C 18.09375 -0.675781 22.148438 -4.238281 22.148438 -10.875 C 22.148438 -17.511719 18.09375 -20.519531 13.179688 -21.074219 Z M 11.703125 -4.363281 C 10.996094 -4.300781 10.507812 -4.300781 9.707031 -4.300781 L 7.988281 -4.300781 L 7.988281 -16.894531 L 9.707031 -16.894531 C 10.507812 -16.894531 10.996094 -16.894531 11.703125 -16.835938 C 14.46875 -16.589844 16.375 -14.5625 16.375 -10.78125 C 16.375 -7.003906 14.46875 -4.609375 11.703125 -4.363281 Z M 11.703125 -4.363281 "/></g></g></g><g fill="#0a4191" fill-opacity="1"><g transform="translate(132.175777, 280.417393)"><g><path d="M 8.359375 -1.546875 L 8.359375 0 L 1.265625 0 L 1.265625 -9.828125 L 8.21875 -9.828125 L 8.21875 -8.296875 L 3.234375 -8.296875 L 3.234375 -5.703125 L 7.859375 -5.703125 L 7.859375 -4.140625 L 3.234375 -4.140625 L 3.234375 -1.546875 Z M 8.359375 -1.546875 "/></g></g></g><g fill="#0a4191" fill-opacity="1"><g transform="translate(144.305835, 280.417393)"><g><path d="M 5.90625 -9.78125 C 7.125 -9.632812 8.101562 -9.164062 8.84375 -8.375 C 9.582031 -7.59375 9.953125 -6.484375 9.953125 -5.046875 C 9.953125 -3.597656 9.570312 -2.4375 8.8125 -1.5625 C 8.0625 -0.695312 7.085938 -0.195312 5.890625 -0.0625 C 5.554688 -0.0195312 5.132812 0 4.625 0 L 1.265625 0 L 1.265625 -9.828125 L 4.65625 -9.828125 C 5.164062 -9.828125 5.582031 -9.8125 5.90625 -9.78125 Z M 5.4375 -1.59375 C 6.1875 -1.6875 6.78125 -2.03125 7.21875 -2.625 C 7.65625 -3.226562 7.875 -4.023438 7.875 -5.015625 C 7.875 -5.960938 7.660156 -6.710938 7.234375 -7.265625 C 6.804688 -7.816406 6.222656 -8.140625 5.484375 -8.234375 C 5.191406 -8.273438 4.84375 -8.296875 4.4375 -8.296875 L 3.234375 -8.296875 L 3.234375 -1.546875 L 4.40625 -1.546875 C 4.882812 -1.546875 5.226562 -1.5625 5.4375 -1.59375 Z M 5.4375 -1.59375 "/></g></g></g><g fill="#0a4191" fill-opacity="1"><g transform="translate(158.074642, 280.417393)"><g><path d="M 9.25 -9.828125 L 9.25 -4 C 9.25 -3.539062 9.238281 -3.15625 9.21875 -2.84375 C 9.15625 -1.957031 8.789062 -1.226562 8.125 -0.65625 C 7.46875 -0.0820312 6.492188 0.203125 5.203125 0.203125 C 3.898438 0.203125 2.914062 -0.0820312 2.25 -0.65625 C 1.59375 -1.226562 1.234375 -1.957031 1.171875 -2.84375 C 1.148438 -3.15625 1.140625 -3.539062 1.140625 -4 L 1.140625 -9.828125 L 3.09375 -9.828125 L 3.09375 -3.8125 C 3.09375 -3.476562 3.101562 -3.238281 3.125 -3.09375 C 3.164062 -2.507812 3.359375 -2.054688 3.703125 -1.734375 C 4.054688 -1.421875 4.554688 -1.265625 5.203125 -1.265625 C 5.835938 -1.265625 6.328125 -1.421875 6.671875 -1.734375 C 7.023438 -2.054688 7.222656 -2.507812 7.265625 -3.09375 C 7.285156 -3.238281 7.296875 -3.476562 7.296875 -3.8125 L 7.296875 -9.828125 Z M 9.25 -9.828125 "/></g></g></g><g fill="#0a4191" fill-opacity="1"><g transform="translate(171.430202, 280.417393)"><g><path d="M 5.484375 -10.03125 C 6.765625 -10.03125 7.765625 -9.71875 8.484375 -9.09375 C 9.210938 -8.476562 9.628906 -7.660156 9.734375 -6.640625 L 9.75 -6.5 L 7.78125 -6.5 L 7.75 -6.640625 C 7.5 -7.921875 6.734375 -8.5625 5.453125 -8.5625 C 4.660156 -8.5625 4.019531 -8.238281 3.53125 -7.59375 C 3.050781 -6.957031 2.8125 -6.082031 2.8125 -4.96875 C 2.8125 -3.78125 3.050781 -2.863281 3.53125 -2.21875 C 4.019531 -1.582031 4.648438 -1.265625 5.421875 -1.265625 C 6.054688 -1.265625 6.5625 -1.441406 6.9375 -1.796875 C 7.320312 -2.148438 7.578125 -2.640625 7.703125 -3.265625 L 7.734375 -3.40625 L 9.6875 -3.40625 L 9.671875 -3.265625 C 9.566406 -2.203125 9.128906 -1.359375 8.359375 -0.734375 C 7.585938 -0.109375 6.582031 0.203125 5.34375 0.203125 C 3.957031 0.203125 2.84375 -0.25 2 -1.15625 C 1.15625 -2.070312 0.734375 -3.304688 0.734375 -4.859375 C 0.734375 -6.429688 1.175781 -7.6875 2.0625 -8.625 C 2.957031 -9.5625 4.097656 -10.03125 5.484375 -10.03125 Z M 5.484375 -10.03125 "/></g></g></g><g fill="#0a4191" fill-opacity="1"><g transform="translate(185.013764, 280.417393)"><g><path d="M 6.59375 -2.96875 L 3.296875 -2.96875 L 2.3125 0 L 0.21875 0 L 3.765625 -9.828125 L 6.234375 -9.828125 L 9.703125 0 L 7.5625 0 Z M 4.953125 -8.15625 L 3.796875 -4.515625 L 6.09375 -4.515625 Z M 4.953125 -8.15625 "/></g></g></g><g fill="#0a4191" fill-opacity="1"><g transform="translate(197.998825, 280.417393)"><g><path d="M 8.96875 -8.296875 L 5.625 -8.296875 L 5.625 0 L 3.65625 0 L 3.65625 -8.296875 L 0.328125 -8.296875 L 0.328125 -9.828125 L 8.96875 -9.828125 Z M 8.96875 -8.296875 "/></g></g></g><g fill="#0a4191" fill-opacity="1"><g transform="translate(210.228633, 280.417393)"><g><path d="M 3.234375 0 L 1.265625 0 L 1.265625 -9.828125 L 3.234375 -9.828125 Z M 3.234375 0 "/></g></g></g><g fill="#0a4191" fill-opacity="1"><g transform="translate(217.741678, 280.417393)"><g><path d="M 5.59375 -10.03125 C 7.09375 -10.03125 8.273438 -9.566406 9.140625 -8.640625 C 10.003906 -7.710938 10.4375 -6.472656 10.4375 -4.921875 C 10.4375 -3.367188 10.003906 -2.125 9.140625 -1.1875 C 8.273438 -0.257812 7.085938 0.203125 5.578125 0.203125 C 4.078125 0.203125 2.894531 -0.257812 2.03125 -1.1875 C 1.164062 -2.125 0.734375 -3.367188 0.734375 -4.921875 C 0.734375 -6.472656 1.160156 -7.710938 2.015625 -8.640625 C 2.878906 -9.566406 4.070312 -10.03125 5.59375 -10.03125 Z M 3.53125 -2.21875 C 4.03125 -1.582031 4.710938 -1.265625 5.578125 -1.265625 C 6.453125 -1.265625 7.132812 -1.585938 7.625 -2.234375 C 8.125 -2.878906 8.375 -3.773438 8.375 -4.921875 C 8.375 -6.066406 8.125 -6.957031 7.625 -7.59375 C 7.132812 -8.238281 6.457031 -8.5625 5.59375 -8.5625 C 4.707031 -8.5625 4.015625 -8.238281 3.515625 -7.59375 C 3.023438 -6.957031 2.78125 -6.0625 2.78125 -4.90625 C 2.78125 -3.757812 3.03125 -2.863281 3.53125 -2.21875 Z M 3.53125 -2.21875 "/></g></g></g><g fill="#0a4191" fill-opacity="1"><g transform="translate(231.994985, 280.417393)"><g><path d="M 9.90625 0 L 7.203125 0 L 3.15625 -7.46875 C 3.207031 -6.570312 3.234375 -5.566406 3.234375 -4.453125 L 3.234375 0 L 1.265625 0 L 1.265625 -9.828125 L 3.875 -9.828125 L 8.015625 -2.21875 C 7.960938 -3.101562 7.9375 -4.132812 7.9375 -5.3125 L 7.9375 -9.828125 L 9.890625 -9.828125 Z M 9.90625 0 "/></g></g></g></svg>