<svg id="visual" viewBox="0 0 900 600" width="900" height="600" xmlns="http://www.w3.org/2000/svg" xmlns:xlink="http://www.w3.org/1999/xlink" version="1.1"><rect x="0" y="0" width="900" height="600" fill="#001220"></rect><path d="M0 394L21.5 397.2C43 400.3 86 406.7 128.8 401.2C171.7 395.7 214.3 378.3 257.2 368.2C300 358 343 355 385.8 367.5C428.7 380 471.3 408 514.2 413.2C557 418.3 600 400.7 642.8 391.8C685.7 383 728.3 383 771.2 382.8C814 382.7 857 382.3 878.5 382.2L900 382L900 601L878.5 601C857 601 814 601 771.2 601C728.3 601 685.7 601 642.8 601C600 601 557 601 514.2 601C471.3 601 428.7 601 385.8 601C343 601 300 601 257.2 601C214.3 601 171.7 601 128.8 601C86 601 43 601 21.5 601L0 601Z" fill="#fa7268"></path><path d="M0 449L21.5 445.2C43 441.3 86 433.7 128.8 435.7C171.7 437.7 214.3 449.3 257.2 450.8C300 452.3 343 443.7 385.8 445.7C428.7 447.7 471.3 460.3 514.2 458.8C557 457.3 600 441.7 642.8 438.7C685.7 435.7 728.3 445.3 771.2 444.7C814 444 857 433 878.5 427.5L900 422L900 601L878.5 601C857 601 814 601 771.2 601C728.3 601 685.7 601 642.8 601C600 601 557 601 514.2 601C471.3 601 428.7 601 385.8 601C343 601 300 601 257.2 601C214.3 601 171.7 601 128.8 601C86 601 43 601 21.5 601L0 601Z" fill="#ef5f67"></path><path d="M0 450L21.5 448.8C43 447.7 86 445.3 128.8 453.7C171.7 462 214.3 481 257.2 482.5C300 484 343 468 385.8 463.3C428.7 458.7 471.3 465.3 514.2 471.3C557 477.3 600 482.7 642.8 487.8C685.7 493 728.3 498 771.2 499.8C814 501.7 857 500.3 878.5 499.7L900 499L900 601L878.5 601C857 601 814 601 771.2 601C728.3 601 685.7 601 642.8 601C600 601 557 601 514.2 601C471.3 601 428.7 601 385.8 601C343 601 300 601 257.2 601C214.3 601 171.7 601 128.8 601C86 601 43 601 21.5 601L0 601Z" fill="#e34c67"></path><path d="M0 520L21.5 515.5C43 511 86 502 128.8 497C171.7 492 214.3 491 257.2 492.5C300 494 343 498 385.8 502.7C428.7 507.3 471.3 512.7 514.2 516.3C557 520 600 522 642.8 517.8C685.7 513.7 728.3 503.3 771.2 502.5C814 501.7 857 510.3 878.5 514.7L900 519L900 601L878.5 601C857 601 814 601 771.2 601C728.3 601 685.7 601 642.8 601C600 601 557 601 514.2 601C471.3 601 428.7 601 385.8 601C343 601 300 601 257.2 601C214.3 601 171.7 601 128.8 601C86 601 43 601 21.5 601L0 601Z" fill="#d53867"></path><path d="M0 544L21.5 543.3C43 542.7 86 541.3 128.8 542.5C171.7 543.7 214.3 547.3 257.2 547C300 546.7 343 542.3 385.8 538C428.7 533.7 471.3 529.3 514.2 529C557 528.7 600 532.3 642.8 533C685.7 533.7 728.3 531.3 771.2 532.5C814 533.7 857 538.3 878.5 540.7L900 543L900 601L878.5 601C857 601 814 601 771.2 601C728.3 601 685.7 601 642.8 601C600 601 557 601 514.2 601C471.3 601 428.7 601 385.8 601C343 601 300 601 257.2 601C214.3 601 171.7 601 128.8 601C86 601 43 601 21.5 601L0 601Z" fill="#c62368"></path></svg>